<?xml version="1.0" encoding="utf-8"?>
<!-- Generator: Adobe Illustrator 15.0.2, SVG Export Plug-In . SVG Version: 6.00 Build 0)  -->
<!DOCTYPE svg PUBLIC "-//W3C//DTD SVG 1.1//EN" "http://www.w3.org/Graphics/SVG/1.1/DTD/svg11.dtd">
<svg version="1.1" id="Layer_1" xmlns="http://www.w3.org/2000/svg" xmlns:xlink="http://www.w3.org/1999/xlink" x="0px" y="0px"
	 width="148.485px" height="133.333px" viewBox="0 0 148.485 133.333" enable-background="new 0 0 148.485 133.333"
	 xml:space="preserve">
<g>
	<path fill="#010101" d="M68.919,21.005c24.46,0,44.362,19.897,44.362,44.36c0,24.461-19.901,44.362-44.362,44.362
		S24.559,89.826,24.559,65.365C24.559,40.902,44.458,21.005,68.919,21.005z M68.919,100.903c19.596,0,35.538-15.941,35.538-35.538
		c0-19.595-15.942-35.536-35.538-35.536c-19.595,0-35.538,15.941-35.538,35.536C33.382,84.962,49.324,100.903,68.919,100.903z"/>
</g>
<path fill="#010101" d="M50.582,52.697c1.318,0,2.633,0.503,3.64,1.509l14.973,14.972l14.973-14.972c2.01-2.012,5.269-2.012,7.279,0
	c2.009,2.01,2.009,5.27,0,7.277L72.833,80.096c-2.01,2.009-5.269,2.009-7.279,0L46.943,61.483c-2.01-2.008-2.01-5.268,0-7.277
	C47.947,53.199,49.266,52.697,50.582,52.697z"/>
</svg>
