<?xml version="1.0" encoding="utf-8"?>
<!-- Generator: Adobe Illustrator 15.0.2, SVG Export Plug-In . SVG Version: 6.00 Build 0)  -->
<!DOCTYPE svg PUBLIC "-//W3C//DTD SVG 1.1//EN" "http://www.w3.org/Graphics/SVG/1.1/DTD/svg11.dtd">
<svg version="1.1" id="Layer_1" xmlns="http://www.w3.org/2000/svg" xmlns:xlink="http://www.w3.org/1999/xlink" x="0px" y="0px"
	 width="1460px" height="1000px" viewBox="0 0 1460 1000" enable-background="new 0 0 1460 1000" xml:space="preserve">
<g>
	<path d="M729.992,168.368c133.072,0,241.336,108.248,241.336,241.328c0,133.071-108.264,241.336-241.336,241.336
		c-133.064,0-241.328-108.265-241.328-241.336C488.664,276.616,596.92,168.368,729.992,168.368z M729.992,603.032
		c106.607,0,193.336-86.729,193.336-193.336c0-106.6-86.729-193.328-193.336-193.328c-106.601,0-193.328,86.728-193.328,193.328
		C536.664,516.304,623.392,603.032,729.992,603.032z"/>
</g>
<path d="M630.232,340.784c7.168,0,14.327,2.735,19.8,8.2l81.456,81.456l81.456-81.456c10.936-10.937,28.663-10.937,39.6,0
	c10.928,10.936,10.928,28.672,0,39.592L751.288,489.832c-10.937,10.928-28.664,10.928-39.601,0L610.44,388.576
	c-10.937-10.92-10.937-28.656,0-39.592C615.904,343.512,623.072,340.784,630.232,340.784z"/>
</svg>
